# Blender v2.90.1 OBJ File: ''
# www.blender.org
mtllib grave_broken.mtl
o Prop_Gravestone_Stone_Broken_03_Mesh.003
v 0.082822 0.541578 0.056498
v 0.065917 0.541578 0.056498
v 0.065917 0.541578 0.074831
v 0.082822 0.541578 0.074831
v 0.208964 0.624445 0.056498
v 0.208964 0.596879 0.056498
v 0.208964 0.596879 0.074831
v 0.208964 0.624445 0.074831
v 0.153252 0.750252 0.056498
v 0.153252 0.722686 0.056498
v 0.176912 0.722686 0.056498
v 0.176912 0.750252 0.056498
v 0.149687 0.597863 0.056498
v 0.149687 0.622373 0.056498
v 0.149687 0.622373 0.074831
v 0.149687 0.597863 0.074831
v 0.176912 0.722686 0.056498
v 0.153252 0.722686 0.056498
v 0.153252 0.722686 0.074831
v 0.176912 0.722686 0.074831
v 0.082822 0.622373 0.056498
v 0.082822 0.541578 0.056498
v 0.082822 0.541578 0.074831
v 0.082822 0.622373 0.074832
v 0.099289 0.541620 0.056498
v 0.119307 0.541620 0.056498
v 0.119307 0.588323 0.056498
v 0.099289 0.588323 0.056498
v 0.149687 0.622373 0.056498
v 0.166413 0.622373 0.056498
v 0.166413 0.622373 0.074831
v 0.149687 0.622373 0.074831
v 0.185303 0.624445 0.056498
v 0.208964 0.624445 0.056498
v 0.208964 0.624445 0.074831
v 0.185303 0.624445 0.074831
v 0.099289 0.588323 0.056498
v 0.119307 0.588323 0.056498
v 0.119307 0.588323 0.074831
v 0.099289 0.588323 0.074831
v -0.108586 0.461193 0.074832
v -0.108586 0.461193 -0.082274
v -0.319598 0.351935 -0.082274
v -0.319597 0.351935 0.074832
v 0.099289 0.541620 0.056498
v 0.099289 0.588323 0.056498
v 0.099289 0.588323 0.074831
v 0.099289 0.541620 0.074831
v 0.119880 0.669457 0.056498
v 0.119880 0.750252 0.056498
v 0.119880 0.750252 0.074832
v 0.119880 0.669457 0.074831
v 0.026973 0.596879 0.056498
v 0.026973 0.624445 0.056498
v 0.026973 0.624445 0.074832
v 0.026973 0.596879 0.074832
v 0.166413 0.622373 0.056498
v 0.166413 0.578837 0.056498
v 0.166413 0.578837 0.074831
v 0.166413 0.622373 0.074831
v 0.192196 0.748181 0.056498
v 0.209101 0.748181 0.056498
v 0.209101 0.748181 0.074831
v 0.192196 0.748181 0.074831
v 0.065917 0.622373 0.056498
v 0.082822 0.622373 0.056498
v 0.082822 0.622373 0.074832
v 0.065917 0.622373 0.074832
v -0.416620 -0.000002 0.179298
v -0.416620 0.057728 0.179298
v -0.416620 0.057728 -0.179297
v -0.416620 -0.000002 -0.179297
v 0.149687 0.622373 0.056498
v 0.149687 0.597863 0.056498
v 0.136218 0.597863 0.056498
v 0.136218 0.578837 0.056498
v 0.166413 0.578837 0.056498
v 0.166413 0.622373 0.056498
v 0.119307 0.588323 0.056498
v 0.119307 0.541620 0.056498
v 0.119307 0.541620 0.074831
v 0.119307 0.588323 0.074831
v 0.136785 0.669457 0.056498
v 0.119880 0.669457 0.056498
v 0.119880 0.669457 0.074831
v 0.136785 0.669457 0.074831
v 0.153252 0.750252 0.056498
v 0.176912 0.750252 0.056498
v 0.176912 0.750252 0.074831
v 0.153252 0.750252 0.074832
v 0.285992 0.886874 -0.082274
v 0.282173 0.891247 -0.082274
v 0.282173 0.891247 0.074831
v 0.285993 0.886874 0.074831
v 0.208964 0.596879 0.056498
v 0.185303 0.596879 0.056498
v 0.185303 0.596879 0.074831
v 0.208964 0.596879 0.074831
v 0.050633 0.624445 0.056498
v 0.050633 0.596879 0.056498
v 0.050633 0.596879 0.074832
v 0.050633 0.624445 0.074832
v 0.170644 0.873609 0.074832
v 0.282173 0.891247 0.074831
v 0.282173 0.891247 -0.082274
v 0.170644 0.873609 -0.082274
v 0.319597 0.122411 0.074831
v 0.319597 0.122411 -0.082275
v 0.319597 0.829317 -0.082274
v 0.319597 0.829317 0.074831
v 0.153252 0.722686 0.056498
v 0.153252 0.750252 0.056498
v 0.153252 0.750252 0.074832
v 0.153252 0.722686 0.074831
v 0.136785 0.750252 0.056498
v 0.136785 0.669457 0.056498
v 0.136785 0.669457 0.074831
v 0.136785 0.750252 0.074832
v 0.416620 0.057729 -0.179298
v 0.384279 0.057729 -0.146957
v 0.416620 0.057729 0.179297
v -0.416620 0.057728 -0.179297
v -0.384279 0.057728 -0.146956
v -0.384279 0.057728 0.146957
v 0.384279 0.057729 0.146956
v -0.416620 0.057728 0.179298
v 0.136218 0.578837 0.056498
v 0.136218 0.597863 0.056498
v 0.136218 0.597863 0.074831
v 0.136218 0.578837 0.074831
v 0.192196 0.667385 0.056498
v 0.192196 0.748181 0.056498
v 0.192196 0.748181 0.074831
v 0.192196 0.667385 0.074831
v 0.170644 0.873609 -0.082274
v -0.059595 0.524410 -0.082274
v -0.059594 0.524410 0.074832
v 0.170644 0.873609 0.074832
v 0.136218 0.597863 0.056498
v 0.149687 0.597863 0.056498
v 0.149687 0.597863 0.074831
v 0.136218 0.597863 0.074831
v 0.209101 0.748181 0.056498
v 0.209101 0.667385 0.056498
v 0.209101 0.667385 0.074831
v 0.209101 0.748181 0.074831
v -0.384279 0.057728 -0.146956
v -0.384279 0.122410 -0.146956
v 0.384279 0.122411 -0.146957
v 0.384279 0.057729 -0.146957
v 0.026973 0.624445 0.056498
v 0.026973 0.596879 0.056498
v 0.050633 0.596879 0.056498
v 0.050633 0.624445 0.056498
v 0.384279 0.057729 0.146956
v 0.384279 0.122411 0.146956
v -0.384279 0.122410 0.146957
v -0.384279 0.057728 0.146957
v -0.059594 0.524410 0.074832
v -0.059595 0.524410 -0.082274
v -0.108586 0.461193 -0.082274
v -0.108586 0.461193 0.074832
v 0.384279 0.057729 -0.146957
v 0.384279 0.122411 -0.146957
v 0.384279 0.122411 0.146956
v 0.384279 0.057729 0.146956
v 0.065917 0.541578 0.056498
v 0.065917 0.622373 0.056498
v 0.065917 0.622373 0.074832
v 0.065917 0.541578 0.074831
v 0.416620 -0.000001 -0.179298
v 0.416620 0.057729 -0.179298
v 0.416620 0.057729 0.179297
v 0.416620 -0.000002 0.179297
v -0.059595 0.524410 -0.082274
v 0.170644 0.873609 -0.082274
v 0.282173 0.891247 -0.082274
v 0.285992 0.886874 -0.082274
v 0.319597 0.829317 -0.082274
v 0.319597 0.122411 -0.082275
v -0.319597 0.122410 -0.082274
v -0.319598 0.351935 -0.082274
v -0.108586 0.461193 -0.082274
v 0.209101 0.667385 0.056498
v 0.192196 0.667385 0.056498
v 0.192196 0.667385 0.074831
v 0.209101 0.667385 0.074831
v 0.384279 0.122411 -0.146957
v 0.319597 0.122411 -0.082275
v 0.384279 0.122411 0.146956
v -0.384279 0.122410 -0.146956
v -0.319597 0.122410 -0.082274
v -0.319597 0.122410 0.074832
v 0.319597 0.122411 0.074831
v -0.384279 0.122410 0.146957
v -0.319597 0.122410 0.074832
v -0.319597 0.351935 0.074832
v -0.319598 0.351935 -0.082274
v -0.319597 0.122410 -0.082274
v 0.416620 -0.000001 -0.179298
v 0.416620 -0.000002 0.179297
v -0.416620 -0.000002 0.179298
v -0.416620 -0.000002 -0.179297
v -0.384279 0.057728 0.146957
v -0.384279 0.122410 0.146957
v -0.384279 0.122410 -0.146956
v -0.384279 0.057728 -0.146956
v 0.185303 0.624445 0.056498
v 0.185303 0.596879 0.056498
v 0.208964 0.596879 0.056498
v 0.208964 0.624445 0.056498
v 0.285993 0.886874 0.074831
v 0.319597 0.829317 0.074831
v 0.319597 0.829317 -0.082274
v 0.285992 0.886874 -0.082274
v 0.026973 0.624445 0.056498
v 0.050633 0.624445 0.056498
v 0.050633 0.624445 0.074832
v 0.026973 0.624445 0.074832
v 0.176912 0.750252 0.056498
v 0.176912 0.722686 0.056498
v 0.176912 0.722686 0.074831
v 0.176912 0.750252 0.074831
v 0.416620 -0.000002 0.179297
v 0.416620 0.057729 0.179297
v -0.416620 0.057728 0.179298
v -0.416620 -0.000002 0.179298
v 0.185303 0.596879 0.056498
v 0.185303 0.624445 0.056498
v 0.185303 0.624445 0.074831
v 0.185303 0.596879 0.074831
v 0.209101 0.748181 0.056498
v 0.192196 0.748181 0.056498
v 0.192196 0.667385 0.056498
v 0.209101 0.667385 0.056498
v -0.416620 -0.000002 -0.179297
v -0.416620 0.057728 -0.179297
v 0.416620 0.057729 -0.179298
v 0.416620 -0.000001 -0.179298
v 0.050633 0.596879 0.056498
v 0.026973 0.596879 0.056498
v 0.026973 0.596879 0.074832
v 0.050633 0.596879 0.074832
v 0.149687 0.622373 0.074831
v 0.136218 0.597863 0.074831
v 0.149687 0.597863 0.074831
v 0.166413 0.578837 0.074831
v 0.185303 0.596879 0.074831
v 0.166413 0.622373 0.074831
v 0.208964 0.596879 0.074831
v 0.185303 0.624445 0.074831
v 0.082822 0.622373 0.074832
v 0.065917 0.622373 0.074832
v 0.050633 0.596879 0.074832
v 0.065917 0.541578 0.074831
v 0.050633 0.624445 0.074832
v 0.082822 0.541578 0.074831
v 0.099289 0.541620 0.074831
v 0.119307 0.541620 0.074831
v 0.099289 0.588323 0.074831
v 0.319597 0.122411 0.074831
v -0.319597 0.122410 0.074832
v 0.319597 0.829317 0.074831
v -0.319597 0.351935 0.074832
v -0.108586 0.461193 0.074832
v -0.059594 0.524410 0.074832
v 0.208964 0.624445 0.074831
v 0.209101 0.667385 0.074831
v 0.026973 0.624445 0.074832
v 0.209101 0.748181 0.074831
v 0.192196 0.748181 0.074831
v 0.176912 0.750252 0.074831
v 0.153252 0.750252 0.074832
v 0.136785 0.750252 0.074832
v 0.119880 0.750252 0.074832
v 0.170644 0.873609 0.074832
v 0.026973 0.596879 0.074832
v 0.119880 0.669457 0.074831
v 0.192196 0.667385 0.074831
v 0.136785 0.669457 0.074831
v 0.285993 0.886874 0.074831
v 0.282173 0.891247 0.074831
v 0.153252 0.722686 0.074831
v 0.176912 0.722686 0.074831
v 0.136218 0.578837 0.074831
v 0.119307 0.588323 0.074831
v 0.119880 0.750252 0.056498
v 0.136785 0.750252 0.056498
v 0.136785 0.750252 0.074832
v 0.119880 0.750252 0.074832
v 0.119880 0.669457 0.056498
v 0.136785 0.669457 0.056498
v 0.136785 0.750252 0.056498
v 0.119880 0.750252 0.056498
v 0.119307 0.541620 0.056498
v 0.099289 0.541620 0.056498
v 0.099289 0.541620 0.074831
v 0.119307 0.541620 0.074831
v 0.082822 0.622373 0.056498
v 0.065917 0.622373 0.056498
v 0.065917 0.541578 0.056498
v 0.082822 0.541578 0.056498
v 0.166413 0.578837 0.056498
v 0.136218 0.578837 0.056498
v 0.136218 0.578837 0.074831
v 0.166413 0.578837 0.074831
vt -0.326073 0.222433
vt -0.259516 0.222433
vt -0.259516 0.294611
vt -0.326073 0.294611
vt 0.222433 0.704024
vt 0.222433 0.595497
vt 0.294611 0.595497
vt 0.294611 0.704024
vt -0.222433 0.599370
vt -0.222433 0.695869
vt -0.294611 0.695869
vt -0.294611 0.599370
vt -0.696507 0.222433
vt -0.603354 0.222433
vt -0.603354 0.294611
vt -0.696507 0.294611
vt 0.222433 0.695869
vt 0.222433 0.377777
vt 0.294611 0.377777
vt 0.294611 0.695869
vt 0.589319 0.222433
vt 0.655171 0.222433
vt 0.655171 0.294611
vt 0.589319 0.294611
vt 0.729541 0.222433
vt 0.822694 0.222433
vt 0.822694 0.294611
vt 0.729541 0.294611
vt 0.390901 0.222433
vt 0.469713 0.222433
vt 0.469713 0.294611
vt 0.390901 0.294611
vt 0.294611 -0.351445
vt -0.323915 -0.351445
vt -0.323915 -1.286958
vt 0.294611 -1.286958
vt -0.222433 0.377944
vt -0.222433 0.561813
vt -0.294611 0.561813
vt -0.294611 0.377944
vt -0.222433 0.881237
vt -0.222433 1.199329
vt -0.294611 1.199329
vt -0.294611 0.881237
vt -0.222433 0.595497
vt -0.222433 0.704024
vt -0.294611 0.704024
vt -0.294611 0.595497
vt 0.222433 0.695869
vt 0.222433 0.524467
vt 0.294611 0.524467
vt 0.294611 0.695869
vt 0.756678 0.222433
vt 0.823234 0.222433
vt 0.823234 0.294611
vt 0.756678 0.294611
vt 0.259516 0.222433
vt 0.326073 0.222433
vt 0.326073 0.294611
vt 0.259516 0.294611
vt 0.705895 -1.754426
vt 0.705895 -1.527142
vt -0.705895 -1.527142
vt -0.705895 -1.754426
vt 0.222433 0.561813
vt 0.222433 0.377944
vt 0.294611 0.377944
vt 0.294611 0.561813
vt -0.538526 0.222433
vt -0.471970 0.222433
vt -0.471970 0.294611
vt -0.538526 0.294611
vt 0.603354 0.222433
vt 0.696507 0.222433
vt 0.696507 0.294611
vt 0.603354 0.294611
vt 0.323915 0.567640
vt 0.323915 0.590498
vt -0.294611 0.590498
vt -0.294611 0.567640
vt -0.822694 0.222433
vt -0.729541 0.222433
vt -0.729541 0.294611
vt -0.822694 0.294611
vt 0.222433 0.704024
vt 0.222433 0.595497
vt 0.294611 0.595497
vt 0.294611 0.704024
vt 0.294611 0.926780
vt 0.294611 1.371325
vt -0.323915 1.371325
vt -0.323915 0.926780
vt -0.294611 -1.272489
vt 0.323915 -1.272489
vt 0.323915 1.510609
vt -0.294611 1.510609
vt -0.222433 1.090801
vt -0.222433 1.199329
vt -0.294611 1.199329
vt -0.294611 1.090801
vt 0.222433 1.199329
vt 0.222433 0.881237
vt 0.294611 0.881237
vt 0.294611 1.199329
vt -1.640238 -0.705895
vt -1.512911 -0.578568
vt -1.640238 0.705895
vt 1.640238 -0.705895
vt 1.512911 -0.578568
vt 1.512911 0.578568
vt -1.512911 0.578568
vt 1.640238 0.705895
vt -0.222433 0.524467
vt -0.222433 0.599370
vt -0.294611 0.599370
vt -0.294611 0.524467
vt -0.222433 0.873082
vt -0.222433 1.191173
vt -0.294611 1.191173
vt -0.294611 0.873082
vt -0.323915 1.776549
vt -0.323915 0.129816
vt 0.294611 0.129816
vt 0.294611 1.776549
vt 0.536292 0.222433
vt 0.589319 0.222433
vt 0.589319 0.294611
vt 0.536292 0.294611
vt 0.222433 1.191173
vt 0.222433 0.873082
vt 0.294611 0.873082
vt 0.294611 1.191173
vt 1.512911 -1.527142
vt 1.512911 -1.272489
vt -1.512911 -1.272489
vt -1.512911 -1.527142
vt 1.512911 -1.527142
vt 1.512911 -1.272489
vt -1.512911 -1.272489
vt -1.512911 -1.527142
vt 0.294611 0.101463
vt -0.323915 0.101463
vt -0.323915 -0.213414
vt 0.294611 -0.213414
vt 0.578568 -1.527142
vt 0.578568 -1.272489
vt -0.578568 -1.272489
vt -0.578568 -1.527142
vt -0.222433 0.377777
vt -0.222433 0.695869
vt -0.294611 0.695869
vt -0.294611 0.377777
vt 0.705895 -1.754426
vt 0.705895 -1.527142
vt -0.705895 -1.527142
vt -0.705895 -1.754426
vt 0.234623 0.310189
vt -0.671830 1.684988
vt -1.110919 1.754426
vt -1.125956 1.737211
vt -1.258258 1.510609
vt -1.258258 -1.272489
vt 1.258258 -1.272489
vt 1.258258 -0.368849
vt 0.427502 0.061300
vt -0.823234 0.222433
vt -0.756678 0.222433
vt -0.756678 0.294611
vt -0.823234 0.294611
vt -1.512911 -0.578568
vt -1.258258 -0.323915
vt -1.512911 0.578568
vt 1.512911 -0.578568
vt 1.258258 -0.323915
vt 1.258258 0.294611
vt -1.258258 0.294611
vt 1.512911 0.578568
vt 0.294611 -1.272489
vt 0.294611 -0.368849
vt -0.323915 -0.368849
vt -0.323915 -1.272489
vt 1.640238 -0.705895
vt 1.640238 0.705895
vt -1.640238 0.705895
vt -1.640238 -0.705895
vt 0.578568 -1.527142
vt 0.578568 -1.272489
vt -0.578568 -1.272489
vt -0.578568 -1.527142
vt -0.294611 0.932519
vt -0.294611 0.670123
vt 0.323915 0.670123
vt 0.323915 0.932519
vt 0.106193 0.222433
vt 0.199345 0.222433
vt 0.199345 0.294611
vt 0.106193 0.294611
vt 0.222433 1.199329
vt 0.222433 1.090801
vt 0.294611 1.090801
vt 0.294611 1.199329
vt 1.640238 -1.754426
vt 1.640238 -1.527142
vt -1.640238 -1.527142
vt -1.640238 -1.754426
vt -0.222433 0.595497
vt -0.222433 0.704024
vt -0.294611 0.704024
vt -0.294611 0.595497
vt 1.640238 -1.754426
vt 1.640238 -1.527142
vt -1.640238 -1.527142
vt -1.640238 -1.754426
vt -0.199345 0.222433
vt -0.106193 0.222433
vt -0.106193 0.294611
vt -0.199345 0.294611
vt 0.589319 0.695869
vt 0.536292 0.599370
vt 0.589319 0.599370
vt 0.655171 0.524467
vt 0.729541 0.595497
vt 0.655171 0.695869
vt 0.822694 0.595497
vt 0.729541 0.704024
vt 0.326073 0.695869
vt 0.259516 0.695869
vt 0.199345 0.595497
vt 0.259516 0.377777
vt 0.199345 0.704024
vt 0.326073 0.377777
vt 0.390901 0.377944
vt 0.469713 0.377944
vt 0.390901 0.561813
vt 1.258258 -1.272489
vt -1.258258 -1.272489
vt 1.258258 1.510609
vt -1.258258 -0.368849
vt -0.427502 0.061300
vt -0.234623 0.310189
vt 0.822694 0.704024
vt 0.823234 0.873082
vt 0.106193 0.704024
vt 0.823234 1.191173
vt 0.756678 1.191173
vt 0.696507 1.199329
vt 0.603354 1.199329
vt 0.538526 1.199329
vt 0.471970 1.199329
vt 0.671830 1.684988
vt 0.106193 0.595497
vt 0.471970 0.881237
vt 0.756678 0.873082
vt 0.538526 0.881237
vt 1.125956 1.737211
vt 1.110919 1.754426
vt 0.603354 1.090801
vt 0.696507 1.090801
vt 0.536292 0.524467
vt 0.469713 0.561813
vt 0.471970 0.222433
vt 0.538526 0.222433
vt 0.538526 0.294611
vt 0.471970 0.294611
vt -0.469713 0.222433
vt -0.390901 0.222433
vt -0.390901 0.294611
vt -0.469713 0.294611
vt -0.655171 0.222433
vt -0.536292 0.222433
vt -0.536292 0.294611
vt -0.655171 0.294611
vt 0.603354 1.199329
vt 0.603354 1.090801
vt 0.696507 1.090801
vt 0.696507 1.199329
vt 0.390901 0.377944
vt 0.469713 0.377944
vt 0.469713 0.561813
vt 0.390901 0.561813
vt 0.589319 0.695869
vt 0.589319 0.599370
vt 0.536292 0.599370
vt 0.536292 0.524467
vt 0.655171 0.524467
vt 0.655171 0.695869
vt 0.106193 0.704024
vt 0.106193 0.595497
vt 0.199345 0.595497
vt 0.199345 0.704024
vt 0.729541 0.704024
vt 0.729541 0.595497
vt 0.822694 0.595497
vt 0.822694 0.704024
vt 0.823234 1.191173
vt 0.756678 1.191173
vt 0.756678 0.873082
vt 0.823234 0.873082
vt 0.471970 0.881237
vt 0.538526 0.881237
vt 0.538526 1.199329
vt 0.471970 1.199329
vt 0.326073 0.695869
vt 0.259516 0.695869
vt 0.259516 0.377777
vt 0.326073 0.377777
vn 0.0000 1.0000 0.0000
vn -1.0000 -0.0000 0.0000
vn 1.0000 0.0000 -0.0000
vn 0.0000 -1.0000 0.0000
vn -0.4598 0.8880 0.0000
vn -0.4601 0.8879 -0.0000
vn 0.7531 0.6579 -0.0000
vn 0.7529 0.6581 0.0000
vn -0.1562 0.9877 -0.0000
vn -0.1565 0.9877 -0.0000
vn -0.8349 0.5505 0.0000
vn -0.8347 0.5507 0.0000
vn -0.0000 0.0000 -1.0000
vn 0.0000 -0.0000 1.0000
vn -0.7904 0.6126 0.0000
vn 0.8634 0.5045 -0.0000
vn 0.8636 0.5042 -0.0000
vn 0.0000 -0.0001 1.0000
usemtl Grey12.001
s 1
f 1/1/1 2/2/1 3/3/1 4/4/1
f 5/5/2 6/6/2 7/7/2 8/8/2
f 13/9/3 14/10/3 15/11/3 16/12/3
f 17/13/1 18/14/1 19/15/1 20/16/1
f 21/17/2 22/18/2 23/19/2 24/20/2
f 29/21/4 30/22/4 31/23/4 32/24/4
f 33/25/4 34/26/4 35/27/4 36/28/4
f 37/29/4 38/30/4 39/31/4 40/32/4
f 41/33/5 42/34/5 43/35/5 44/36/6
f 45/37/3 46/38/3 47/39/3 48/40/3
f 49/41/3 50/42/3 51/43/3 52/44/3
f 53/45/3 54/46/3 55/47/3 56/48/3
f 57/49/2 58/50/2 59/51/2 60/52/2
f 61/53/4 62/54/4 63/55/4 64/56/4
f 65/57/4 66/58/4 67/59/4 68/60/4
f 69/61/2 70/62/2 71/63/2 72/64/2
f 79/65/2 80/66/2 81/67/2 82/68/2
f 83/69/1 84/70/1 85/71/1 86/72/1
f 87/73/4 88/74/4 89/75/4 90/76/4
f 91/77/7 92/78/8 93/79/8 94/80/7
f 95/81/1 96/82/1 97/83/1 98/84/1
f 99/85/2 100/86/2 101/87/2 102/88/2
f 103/89/9 104/90/10 105/91/10 106/92/9
f 107/93/3 108/94/3 109/95/3 110/96/3
f 111/97/3 112/98/3 113/99/3 114/100/3
f 115/101/2 116/102/2 117/103/2 118/104/2
f 119/105/1 120/106/1 121/107/1
f 120/106/1 119/105/1 122/108/1
f 120/106/1 122/108/1 123/109/1
f 123/109/1 122/108/1 124/110/1
f 121/107/1 125/111/1 126/112/1
f 125/111/1 121/107/1 120/106/1
f 126/112/1 125/111/1 124/110/1
f 126/112/1 124/110/1 122/108/1
f 127/113/3 128/114/3 129/115/3 130/116/3
f 131/117/3 132/118/3 133/119/3 134/120/3
f 135/121/11 136/122/11 137/123/12 138/124/11
f 139/125/4 140/126/4 141/127/4 142/128/4
f 143/129/2 144/130/2 145/131/2 146/132/2
f 147/133/13 148/134/13 149/135/13 150/136/13
f 155/137/14 156/138/14 157/139/14 158/140/14
f 159/141/15 160/142/15 161/143/15 162/144/15
f 163/145/3 164/146/3 165/147/3 166/148/3
f 167/149/3 168/150/3 169/151/3 170/152/3
f 171/153/3 172/154/3 173/155/3 174/156/3
f 175/157/13 176/158/13 177/159/13 178/160/13 179/161/13 180/162/13 181/163/13 182/164/13 183/165/13
f 184/166/1 185/167/1 186/168/1 187/169/1
f 188/170/1 189/171/1 190/172/1
f 189/171/1 188/170/1 191/173/1
f 189/171/1 191/173/1 192/174/1
f 192/174/1 191/173/1 193/175/1
f 190/172/1 194/176/1 195/177/1
f 194/176/1 190/172/1 189/171/1
f 195/177/1 194/176/1 193/175/1
f 195/177/1 193/175/1 191/173/1
f 196/178/2 197/179/2 198/180/2 199/181/2
f 200/182/4 201/183/4 202/184/4 203/185/4
f 204/186/2 205/187/2 206/188/2 207/189/2
f 212/190/16 213/191/17 214/192/17 215/193/16
f 216/194/4 217/195/4 218/196/4 219/197/4
f 220/198/2 221/199/2 222/200/2 223/201/2
f 224/202/14 225/203/14 226/204/14 227/205/14
f 228/206/3 229/207/3 230/208/3 231/209/3
f 236/210/13 237/211/13 238/212/13 239/213/13
f 240/214/1 241/215/1 242/216/1 243/217/1
f 244/218/14 245/219/14 246/220/14
f 247/221/14 248/222/14 249/223/14
f 248/222/14 247/221/14 250/224/14
f 249/223/14 248/222/14 251/225/14
f 249/223/14 251/225/14 244/218/14
f 244/218/14 251/225/14 252/226/14
f 252/226/14 251/225/14 253/227/14
f 253/227/14 254/228/14 255/229/14
f 254/228/14 253/227/14 256/230/14
f 256/230/14 253/227/14 251/225/14
f 257/231/14 258/232/18 252/226/14
f 258/232/18 257/231/14 259/233/14
f 252/226/14 258/232/18 260/234/14
f 252/226/14 260/234/14 245/219/14
f 252/226/14 245/219/14 244/218/14
f 261/235/14 250/224/14 262/236/14
f 250/224/14 261/235/14 263/237/14
f 262/236/14 250/224/14 259/233/14
f 262/236/14 259/233/14 264/238/14
f 264/238/14 259/233/14 265/239/14
f 265/239/14 259/233/14 266/240/14
f 266/240/14 259/233/14 257/231/14
f 259/233/14 250/224/14 247/221/14
f 250/224/14 263/237/14 267/241/14
f 267/241/14 263/237/14 251/225/14
f 251/225/14 263/237/14 268/242/14
f 251/225/14 268/242/14 256/230/14
f 256/230/14 268/242/14 269/243/14
f 268/242/14 263/237/14 270/244/14
f 270/244/14 263/237/14 271/245/14
f 271/245/14 263/237/14 272/246/14
f 272/246/14 263/237/14 273/247/14
f 273/247/14 263/237/14 274/248/14
f 274/248/14 263/237/14 275/249/14
f 266/240/14 269/243/14 276/250/14
f 269/243/14 266/240/14 277/251/14
f 277/251/14 266/240/14 255/229/14
f 255/229/14 266/240/14 257/231/14
f 277/251/14 255/229/14 254/228/14
f 276/250/14 269/243/14 275/249/14
f 275/249/14 269/243/14 278/252/14
f 278/252/14 269/243/14 279/253/14
f 279/253/14 269/243/14 268/242/14
f 278/252/14 279/253/14 280/254/14
f 276/250/14 275/249/14 263/237/14
f 276/250/14 263/237/14 281/255/14
f 276/250/14 281/255/14 282/256/14
f 280/254/14 283/257/14 274/248/14
f 283/257/14 280/254/14 284/258/14
f 274/248/14 283/257/14 273/247/14
f 279/253/14 284/258/14 280/254/14
f 284/258/14 279/253/14 271/245/14
f 284/258/14 271/245/14 272/246/14
f 259/233/14 285/259/14 286/260/14
f 285/259/14 259/233/14 247/221/14
f 286/260/14 285/259/14 245/219/14
f 286/260/14 245/219/14 260/234/14
f 287/261/4 288/262/4 289/263/4 290/264/4
f 295/265/1 296/266/1 297/267/1 298/268/1
f 303/269/1 304/270/1 305/271/1 306/272/1
usemtl Grey14
f 9/273/14 10/274/14 11/275/14 12/276/14
f 25/277/14 26/278/14 27/279/14 28/280/14
f 73/281/14 74/282/14 75/283/14 76/284/14 77/285/14 78/286/14
f 151/287/14 152/288/14 153/289/14 154/290/14
f 208/291/14 209/292/14 210/293/14 211/294/14
f 232/295/14 233/296/14 234/297/14 235/298/14
f 291/299/14 292/300/14 293/301/14 294/302/14
f 299/303/14 300/304/14 301/305/14 302/306/14
