# Blender v2.90.1 OBJ File: ''
# www.blender.org
mtllib rock_small.mtl
o Rock_Small_01_Mesh.004
v -0.042076 0.482561 0.315575
v 0.003701 0.613174 0.010629
v -0.397406 0.563206 0.239770
v -0.094703 0.563206 -0.389277
v -0.580559 0.123951 -0.027204
v -0.580559 0.446900 -0.027204
v 0.402761 0.123952 -0.406871
v -0.115301 -0.000001 0.014096
v -0.272972 0.123951 -0.433213
v 0.433986 0.408267 -0.141065
v 0.402761 0.123952 -0.406871
v -0.094703 0.563206 -0.389277
v -0.397406 0.563206 0.239770
v -0.376391 0.123951 0.418658
v 0.148654 0.123951 0.433214
v -0.580559 0.123951 -0.027204
v -0.094703 0.563206 -0.389277
v -0.272972 0.123951 -0.433213
v -0.580559 0.123951 -0.027204
v 0.580559 0.123952 0.021762
v 0.148654 0.123951 0.433214
v 0.294653 0.563206 0.200824
v 0.294653 0.563206 0.200824
v 0.148654 0.123951 0.433214
v 0.580559 0.123952 0.021762
v -0.094703 0.563206 -0.389277
v 0.003701 0.613174 0.010629
v 0.433986 0.408267 -0.141065
v -0.094703 0.563206 -0.389277
v 0.402761 0.123952 -0.406871
v -0.272972 0.123951 -0.433213
v -0.376391 0.123951 0.418658
v -0.580559 0.446900 -0.027204
v -0.397406 0.563206 0.239770
v 0.003701 0.613174 0.010629
v -0.094703 0.563206 -0.389277
v 0.433986 0.408267 -0.141065
v 0.580559 0.123952 0.021762
v 0.402761 0.123952 -0.406871
v -0.397406 0.563206 0.239770
v -0.580559 0.446900 -0.027204
v -0.580559 0.123951 -0.027204
v 0.294653 0.563206 0.200824
v -0.042076 0.482561 0.315575
v 0.148654 0.123951 0.433214
v 0.433986 0.408267 -0.141065
v 0.294653 0.563206 0.200824
v 0.580559 0.123952 0.021762
v 0.294653 0.563206 0.200824
v -0.042076 0.482561 0.315575
v -0.376391 0.123951 0.418658
vt -0.508547 -0.744940
vt 0.002211 0.470550
vt -1.766990 0.005545
vt -0.616834 1.010313
vt 1.768723 -0.719037
vt 1.768723 0.552415
vt -1.522073 1.405716
vt 0.451434 -0.397131
vt 1.140317 1.405716
vt -1.061812 -0.497812
vt -0.350437 -1.860574
vt 1.198269 0.244838
vt -1.537829 0.565080
vt -1.435608 -1.301216
vt 0.632292 -1.301216
vt 1.294857 1.585438
vt -0.710518 1.585438
vt 0.318353 -0.047424
vt -0.996460 0.505003
vt -0.710518 -1.347401
vt 1.294857 -1.347401
vt 1.595824 1.409798
vt -0.752676 1.409798
vt -0.366951 -0.563019
vt 0.126963 -0.876536
vt 1.311772 -0.064977
vt 0.023880 0.437870
vt 0.294578 0.789920
vt -0.752676 -0.959764
vt 1.595824 -0.959764
vt 1.519277 0.033388
vt -0.043629 0.507686
vt -0.350633 -1.437302
vt 0.432263 0.879574
vt -1.522073 -0.855887
vt 1.140317 -0.855887
vt 0.881652 1.734818
vt -1.048998 1.734818
vt -0.138536 0.064231
vt 1.485311 -1.442891
vt 1.758806 -0.116395
vt 0.020556 0.453502
vt -1.430580 -0.360374
vt 0.340253 -2.023113
vt 0.038204 0.353982
vt -1.435608 1.409657
vt -0.452228 -0.282858
vt 0.632292 1.409657
vt -0.141655 -0.057674
vt -0.954884 -1.213332
vt 0.872066 -1.213332
vt -0.106690 1.010313
vt -1.381336 0.552415
vt -1.381336 -0.719037
vt 0.950777 0.508767
vt -0.442807 0.161892
vt 0.183648 -1.380584
vt 0.783851 -0.475525
vt -0.624546 0.232427
vt 0.227751 -1.774616
vt -0.041609 0.533959
vt -1.346664 0.077503
vt -0.652755 -1.337867
vt -1.398155 0.706482
vt 0.844179 -1.072399
vt 0.030215 0.379888
vt 0.206867 0.775311
vt -1.048998 -0.967725
vt 0.881652 -0.967725
vt 0.872066 1.903720
vt -0.954884 1.903720
vt 0.122664 -0.662091
vn 0.0143 0.9184 0.3955
vn 0.0142 0.9184 0.3954
vn 0.1190 0.9061 0.4060
vn -0.5975 -0.0000 -0.8018
vn 0.0937 -0.9804 -0.1734
vn -0.0269 -0.9996 0.0113
vn -0.1148 -0.9671 -0.2272
vn 0.4801 0.5704 -0.6665
vn -0.0892 0.3067 0.9476
vn -0.0257 0.3760 0.9263
vn -0.0892 0.3064 0.9477
vn -0.2548 -0.9665 -0.0298
vn -0.7441 0.3584 -0.5637
vn 0.1749 -0.9831 0.0536
vn 0.0817 -0.9686 0.2350
vn -0.0907 0.9203 0.3806
vn 0.6817 0.1520 0.7156
vn 0.3618 0.9099 -0.2027
vn 0.3480 0.9068 -0.2381
vn 0.3479 0.9068 -0.2379
vn 0.0388 0.0835 -0.9958
vn 0.0388 0.0838 -0.9957
vn -0.1383 -0.9683 0.2079
vn -0.2621 0.9540 -0.1455
vn -0.2518 0.9385 -0.2361
vn -0.2620 0.9541 -0.1454
vn -0.2701 0.9613 -0.0537
vn 0.8947 0.2487 -0.3711
vn 0.8945 0.2487 -0.3716
vn -0.8682 0.0629 0.4922
vn -0.8246 -0.0000 0.5657
vn 0.2074 0.4027 0.8915
vn 0.8535 0.5075 0.1179
vn 0.3337 0.9022 -0.2733
vn -0.1517 0.2347 0.9602
vn -0.9021 0.1251 0.4131
usemtl Grey02
s 1
f 1/1/1 2/2/2 3/3/3
f 4/4/4 5/5/4 6/6/4
f 7/7/5 8/8/6 9/9/7
f 10/10/8 11/11/8 12/12/8
f 13/13/9 14/14/10 15/15/11
f 16/16/12 9/17/7 8/18/6
f 17/19/13 18/20/13 19/21/13
f 20/22/14 21/23/15 8/24/6
f 1/25/1 22/26/16 2/27/2
f 23/28/17 24/29/17 25/30/17
f 26/31/18 27/32/19 28/33/20
f 29/34/21 30/35/22 31/36/22
f 32/37/23 16/38/12 8/39/6
f 33/40/24 34/41/25 35/42/26
f 36/43/27 33/44/24 35/45/26
f 32/46/23 8/47/6 21/48/15
f 37/49/28 38/50/28 39/51/29
f 40/52/30 41/53/31 42/54/30
f 43/55/32 44/56/32 45/57/32
f 46/58/33 47/59/33 48/60/33
f 27/61/19 49/62/34 28/63/20
f 13/64/9 15/65/11 50/66/35
f 40/67/30 42/68/30 51/69/36
f 7/70/5 20/71/14 8/72/6
