# Blender v2.90.1 OBJ File: ''
# www.blender.org
mtllib ruins_archway_0.mtl
o Prop_Ruins_Archway_Stone_Half_01_Mesh
v 0.827978 3.756020 -0.352126
v -0.117378 3.756021 -0.352125
v -0.117377 3.756021 0.352130
v 0.827979 3.756021 0.352129
v -0.764316 1.267653 0.281704
v -0.716104 1.267653 0.352129
v -0.764316 1.750437 0.352129
v 0.076775 3.141859 0.352129
v 0.076775 2.887440 0.352129
v 0.076774 2.887440 -0.352126
v 0.076774 3.141859 -0.352126
v 0.517441 3.396278 -0.352126
v 0.827979 3.216989 -0.352126
v 0.755649 3.258749 -0.034351
v 0.673436 3.306215 0.352129
v 0.517442 3.396278 0.352129
v -0.724603 3.255456 0.352130
v -0.724603 2.990818 0.352130
v -0.724603 2.990818 0.305179
v -0.724603 3.255456 0.305180
v -0.827982 3.321731 0.352130
v -0.827983 3.321730 -0.352125
v -0.827983 2.887439 -0.352125
v -0.827982 2.887439 -0.281699
v -0.827982 2.887439 0.281704
v -0.827982 2.887440 0.352130
v 0.076775 1.267654 0.352128
v 0.006350 1.267654 0.281703
v 0.076775 1.267654 -0.352127
v -0.716104 1.267653 0.352129
v -0.693890 1.267653 0.281704
v -0.693891 1.267653 -0.281700
v 0.006349 1.267654 -0.281701
v -0.764317 1.267653 -0.352126
v -0.764316 1.267653 0.281704
v -0.764315 -0.000006 0.352128
v -0.764315 0.657299 0.352129
v -0.764316 0.657299 -0.352126
v -0.764316 -0.000005 -0.352126
v 0.029825 1.665212 0.024598
v 0.029825 1.541894 0.152057
v 0.029825 1.411597 0.051928
v 0.029825 1.497421 -0.059755
v 0.006350 2.042334 0.281703
v 0.006350 2.137033 0.281703
v -0.140168 2.365316 0.281703
v 0.006349 2.633020 0.281703
v 0.006349 2.887440 0.281704
v -0.827982 2.887439 0.281704
v -0.764317 2.524975 0.281704
v -0.693891 2.524975 0.281704
v -0.693891 2.042334 0.281704
v 0.827978 3.756020 -0.352126
v 0.755649 3.258749 -0.034351
v 0.827979 3.216989 -0.352126
v 0.076774 2.042334 -0.352126
v 0.006349 2.042334 -0.281701
v 0.076775 2.042334 0.281703
v -0.764317 2.042334 -0.352125
v -0.693891 2.042334 -0.281700
v -0.693891 2.042334 0.281704
v 0.006350 2.042334 0.281703
v -0.020434 2.042334 0.352129
v -0.764316 2.042334 0.352129
v 0.517441 3.515650 0.305178
v 0.616444 3.458491 0.305178
v 0.683150 3.652642 0.305178
v -0.094767 3.652642 0.305179
v -0.724603 3.255456 0.305180
v -0.724603 2.990818 0.305179
v -0.026604 2.990819 0.305179
v -0.026604 3.201545 0.305179
v 0.006350 1.267654 0.281703
v 0.006350 0.657299 0.281702
v 0.006350 0.657300 -0.281701
v 0.006349 1.267654 -0.281701
v 0.006349 2.887440 -0.281700
v 0.006349 2.042334 -0.281701
v -0.693891 2.042334 -0.281700
v -0.693892 2.524975 -0.281700
v -0.764317 2.524975 -0.281700
v -0.827982 2.887439 -0.281699
v 0.673436 3.306215 0.352129
v 0.616444 3.458491 0.352129
v 0.517442 3.396278 0.352129
v 0.827979 3.756021 0.352129
v 0.683150 3.652642 0.352129
v -0.094767 3.652642 0.352130
v -0.827982 2.887440 0.352130
v -0.724603 2.990818 0.352130
v -0.827982 3.321731 0.352130
v -0.026604 2.990819 0.352129
v -0.724603 3.255456 0.352130
v -0.117377 3.756021 0.352130
v 0.076775 2.887440 0.352129
v 0.076775 3.141859 0.352129
v -0.026604 3.201545 0.352129
v 0.517442 3.515650 0.352129
v -0.026605 3.201545 -0.352126
v -0.026605 2.990819 -0.352126
v -0.026605 2.990819 -0.305175
v -0.026605 3.201545 -0.305175
v 0.006349 2.887440 -0.281700
v -0.827982 2.887439 -0.281699
v -0.827983 2.887439 -0.352125
v 0.076774 2.887440 -0.352126
v 0.076775 2.887440 0.352129
v -0.827982 2.887440 0.352130
v -0.827982 2.887439 0.281704
v 0.006349 2.887440 0.281704
v -0.764317 1.267653 -0.352126
v -0.764316 1.267653 0.281704
v -0.764316 1.750437 0.352129
v -0.764316 2.042334 0.352129
v -0.764317 2.042334 -0.352125
v 0.724600 3.396047 -0.352126
v 0.517441 3.515650 -0.352126
v 0.517441 3.515650 -0.305176
v 0.724600 3.396047 -0.305176
v 0.076776 -0.000005 0.352128
v 0.076776 0.463176 0.352128
v -0.644765 0.657299 0.352129
v -0.764315 0.657299 0.352129
v -0.764315 -0.000006 0.352128
v 0.076775 2.042334 0.281703
v 0.076775 1.267654 -0.352127
v 0.076774 2.042334 -0.352126
v 0.076775 1.665212 0.024598
v 0.076775 1.497421 -0.059755
v 0.076775 1.541894 0.152057
v 0.076775 1.411597 0.051928
v 0.076775 1.267654 0.352128
v 0.076775 1.941976 0.352129
v -0.764317 2.524975 -0.281700
v -0.764317 2.524975 0.281704
v -0.827982 2.887439 0.281704
v -0.827982 2.887439 -0.281699
v -0.724604 3.255456 -0.352125
v -0.094768 3.652642 -0.352125
v -0.094768 3.652642 -0.305175
v -0.724604 3.255456 -0.305174
v 0.076775 1.665212 0.024598
v 0.076775 1.541894 0.152057
v 0.029825 1.541894 0.152057
v 0.029825 1.665212 0.024598
v -0.026605 2.990819 -0.352126
v -0.724604 2.990818 -0.352125
v -0.724604 2.990818 -0.305175
v -0.026605 2.990819 -0.305175
v 0.006349 2.308424 -0.025899
v -0.140168 2.365316 0.281703
v 0.006350 2.137033 0.281703
v -0.026604 3.201545 0.352129
v 0.517442 3.515650 0.352129
v 0.517441 3.515650 0.305178
v -0.026604 3.201545 0.305179
v 0.517442 3.396278 0.352129
v 0.076775 3.141859 0.352129
v 0.076774 3.141859 -0.352126
v 0.517441 3.396278 -0.352126
v 0.724600 3.396047 -0.305176
v 0.517441 3.515650 -0.305176
v -0.026605 3.201545 -0.305175
v -0.026605 2.990819 -0.305175
v -0.724604 2.990818 -0.305175
v -0.724604 3.255456 -0.305174
v -0.094768 3.652642 -0.305175
v 0.724600 3.652642 -0.305176
v -0.724603 2.990818 0.352130
v -0.026604 2.990819 0.352129
v -0.026604 2.990819 0.305179
v -0.724603 2.990818 0.305179
v -0.140168 2.365316 0.281703
v 0.006349 2.308424 -0.025899
v 0.006349 2.633020 0.281703
v 0.076775 -0.000005 -0.352127
v -0.764316 -0.000005 -0.352126
v -0.764316 0.657299 -0.352126
v 0.076775 0.657300 -0.352127
v 0.076774 2.887440 -0.352126
v -0.026605 2.990819 -0.352126
v 0.076774 3.141859 -0.352126
v -0.724604 2.990818 -0.352125
v -0.026605 3.201545 -0.352126
v 0.517441 3.396278 -0.352126
v 0.517441 3.515650 -0.352126
v 0.724600 3.396047 -0.352126
v 0.827979 3.216989 -0.352126
v -0.827983 2.887439 -0.352125
v -0.827983 3.321730 -0.352125
v -0.724604 3.255456 -0.352125
v -0.094768 3.652642 -0.352125
v -0.117378 3.756021 -0.352125
v 0.724600 3.652642 -0.352126
v 0.827978 3.756020 -0.352126
v 0.076775 1.541894 0.152057
v 0.076775 1.411597 0.051928
v 0.029825 1.411597 0.051928
v 0.029825 1.541894 0.152057
v -0.764316 2.042334 0.352129
v -0.764316 1.750437 0.352129
v -0.716104 1.267653 0.352129
v 0.076775 1.267654 0.352128
v 0.076775 1.941976 0.352129
v -0.020434 2.042334 0.352129
v -0.693891 0.657300 -0.281701
v -0.693890 0.657299 0.281703
v -0.693890 1.267653 0.281704
v -0.693891 1.267653 -0.281700
v 0.724600 3.652642 -0.352126
v 0.724600 3.396047 -0.352126
v 0.724600 3.396047 -0.305176
v 0.724600 3.652642 -0.305176
v 0.076775 0.657300 -0.352127
v 0.076776 0.657299 0.281702
v 0.076776 0.463176 0.352128
v 0.076776 -0.000005 0.352128
v 0.076775 -0.000005 -0.352127
v -0.724604 2.990818 -0.352125
v -0.724604 3.255456 -0.352125
v -0.724604 3.255456 -0.305174
v -0.724604 2.990818 -0.305175
v -0.693891 2.042334 -0.281700
v -0.693891 2.042334 0.281704
v -0.693891 2.524975 0.281704
v -0.693892 2.524975 -0.281700
v -0.026604 2.990819 0.352129
v -0.026604 2.990819 0.305179
v 0.076775 1.411597 0.051928
v 0.076775 1.497421 -0.059755
v 0.029825 1.497421 -0.059755
v 0.029825 1.411597 0.051928
v -0.094768 3.652642 -0.352125
v 0.724600 3.652642 -0.352126
v 0.724600 3.652642 -0.305176
v -0.094768 3.652642 -0.305175
v 0.683150 3.652642 0.352129
v -0.094767 3.652642 0.352130
v -0.094767 3.652642 0.305179
v 0.683150 3.652642 0.305178
v 0.006350 1.267654 0.281703
v -0.693890 1.267653 0.281704
v -0.693890 0.657299 0.281703
v 0.006350 0.657299 0.281702
v 0.755649 3.258749 -0.034351
v 0.827978 3.756020 -0.352126
v 0.827979 3.756021 0.352129
v 0.616444 3.458491 0.352129
v 0.616444 3.458491 0.305178
v -0.764316 -0.000005 -0.352126
v 0.076775 -0.000005 -0.352127
v 0.076776 -0.000005 0.352128
v -0.764315 -0.000006 0.352128
v 0.076775 1.941976 0.352129
v 0.076775 2.042334 0.281703
v -0.020434 2.042334 0.352129
v 0.006349 2.887440 0.281704
v 0.006349 2.633020 0.281703
v 0.006349 2.308424 -0.025899
v 0.006350 2.137033 0.281703
v 0.006350 2.042334 0.281703
v 0.006349 2.042334 -0.281701
v 0.006349 2.887440 -0.281700
v 0.673436 3.306215 0.352129
v 0.755649 3.258749 -0.034351
v 0.827979 3.756021 0.352129
v 0.616444 3.458491 0.352129
v 0.683150 3.652642 0.352129
v 0.683150 3.652642 0.305178
v 0.616444 3.458491 0.305178
v 0.006349 1.267654 -0.281701
v 0.006350 0.657300 -0.281701
v -0.693891 0.657300 -0.281701
v -0.693891 1.267653 -0.281700
v -0.764317 2.524975 0.281704
v -0.764317 2.524975 -0.281700
v -0.693892 2.524975 -0.281700
v -0.693891 2.524975 0.281704
v -0.827982 3.321731 0.352130
v -0.117377 3.756021 0.352130
v -0.117378 3.756021 -0.352125
v -0.827983 3.321730 -0.352125
v 0.076775 1.497421 -0.059755
v 0.076775 1.665212 0.024598
v 0.029825 1.665212 0.024598
v 0.029825 1.497421 -0.059755
v 0.076775 1.267654 -0.352127
v -0.764317 1.267653 -0.352126
v -0.764317 2.042334 -0.352125
v 0.076774 2.042334 -0.352126
v 0.076776 0.657299 0.281702
v -0.644765 0.657299 0.352129
v 0.076776 0.463176 0.352128
v -0.094767 3.652642 0.352130
v -0.724603 3.255456 0.352130
v -0.724603 3.255456 0.305180
v -0.094767 3.652642 0.305179
v 0.076775 0.657300 -0.352127
v 0.006350 0.657300 -0.281701
v 0.076776 0.657299 0.281702
v -0.764316 0.657299 -0.352126
v -0.693891 0.657300 -0.281701
v -0.693890 0.657299 0.281703
v 0.006350 0.657299 0.281702
v -0.644765 0.657299 0.352129
v -0.764315 0.657299 0.352129
vt -1.629884 -0.693164
vt 0.231055 -0.693164
vt 0.231055 0.693164
vt -1.629884 0.693164
vt -0.392337 -1.069742
vt -0.224331 -1.069742
vt -0.277943 -0.116159
vt -0.693164 2.487896
vt -0.693164 1.987071
vt 0.693164 1.987071
vt 0.693164 2.487896
vt -0.693164 0.612237
vt -0.693164 -0.093626
vt -0.067622 0.070783
vt 0.693164 0.257658
vt 0.693164 0.612237
vt -0.693164 2.711512
vt -0.693164 2.190573
vt -0.600742 2.190573
vt -0.600742 2.711512
vt 0.693164 2.841973
vt -0.693164 2.841973
vt -0.693164 1.987071
vt -0.554531 1.987071
vt 0.554531 1.987071
vt 0.693164 1.987071
vt 0.151133 0.693164
vt 0.012501 0.554531
vt 0.151133 -0.693164
vt -1.409652 0.693164
vt -1.365926 0.554531
vt -1.365926 -0.554531
vt 0.012501 -0.554531
vt -1.504558 -0.693164
vt -1.504558 0.554531
vt 0.693164 -3.696876
vt 0.693164 -2.402969
vt -0.693164 -2.402969
vt -0.693164 -3.696876
vt -0.048419 -0.418889
vt -0.299322 -0.661641
vt -0.102220 -0.918132
vt 0.117630 -0.749187
vt 0.012501 0.323477
vt 0.012501 0.509893
vt -0.275920 0.959268
vt 0.012501 1.486245
vt 0.012501 1.987071
vt -1.629884 1.987071
vt -1.504558 1.273557
vt -1.365926 1.273557
vt -1.365926 0.323477
vt 1.037609 3.696876
vt 0.396068 2.717994
vt 1.037609 2.635790
vt -0.151133 -0.693164
vt -0.012501 -0.554531
vt -0.151133 0.554531
vt 1.504558 -0.693164
vt 1.365926 -0.554531
vt 1.365926 0.554531
vt -0.012501 0.554531
vt 0.040223 0.693164
vt 1.504558 0.693164
vt 1.018588 3.223705
vt 1.213475 3.111187
vt 1.344786 3.493374
vt -0.186547 3.493374
vt -1.426382 2.711512
vt -1.426382 2.190573
vt -0.052368 2.190573
vt -0.052368 2.605388
vt -0.554531 -1.201485
vt -0.554531 -2.402969
vt 0.554531 -2.402969
vt 0.554531 -1.201485
vt -0.012501 1.987071
vt -0.012501 0.323477
vt 1.365926 0.323477
vt 1.365926 1.273557
vt 1.504558 1.273557
vt 1.629884 1.987071
vt 1.325663 2.811432
vt 1.213475 3.111187
vt 1.018588 2.988721
vt 1.629884 3.696876
vt 1.344786 3.493374
vt -0.186547 3.493374
vt -1.629884 1.987071
vt -1.426382 2.190573
vt -1.629884 2.841973
vt -0.052368 2.190573
vt -1.426382 2.711512
vt -0.231055 3.696876
vt 0.151133 1.987071
vt 0.151133 2.487896
vt -0.052368 2.605388
vt 1.018588 3.223705
vt -0.693164 2.605388
vt -0.693164 2.190573
vt -0.600742 2.190573
vt -0.600742 2.605388
vt 0.012501 -0.554531
vt -1.629884 -0.554531
vt -1.629884 -0.693164
vt 0.151133 -0.693164
vt 0.151133 0.693164
vt -1.629884 0.693164
vt -1.629884 0.554531
vt 0.012501 0.554531
vt -0.693164 -1.201485
vt 0.554531 -1.201485
vt 0.693164 -0.251124
vt 0.693164 0.323477
vt -0.693164 0.323477
vt 0.693164 0.258850
vt 0.693164 0.729729
vt 0.600742 0.729729
vt 0.600742 0.258850
vt 0.151133 -3.696876
vt 0.151133 -2.785103
vt -1.269223 -2.402969
vt -1.504558 -2.402969
vt -1.504558 -3.696876
vt -0.554531 0.323477
vt 0.693164 -1.201485
vt 0.693164 0.323477
vt -0.048419 -0.418889
vt 0.117630 -0.749187
vt -0.299322 -0.661641
vt -0.102220 -0.918132
vt -0.693164 -1.201485
vt -0.693164 0.125922
vt -0.554531 1.514639
vt 0.554531 1.514639
vt 0.554531 2.239075
vt -0.554531 2.239075
vt 0.693164 0.239839
vt 0.693164 1.705614
vt 0.600742 1.705614
vt 0.600742 0.239839
vt -0.151133 -0.326067
vt -0.151133 -0.675181
vt -0.058711 -0.675181
vt -0.058711 -0.326067
vt 0.052368 -0.693164
vt 1.426382 -0.693164
vt 1.426382 -0.600742
vt 0.052368 -0.600742
vt 0.052216 0.727932
vt -0.615058 0.858787
vt -0.517938 0.333722
vt 0.693164 1.257342
vt 0.693164 2.493976
vt 0.600742 2.493976
vt 0.600742 1.257342
vt -0.693164 2.376484
vt -0.693164 1.374833
vt 0.693164 1.374833
vt 0.693164 2.376484
vt -1.426382 2.988266
vt -1.018588 3.223705
vt 0.052368 2.605388
vt 0.052368 2.190573
vt 1.426382 2.190573
vt 1.426382 2.711512
vt 0.186547 3.493374
vt -1.426382 3.493374
vt 1.426382 0.693164
vt 0.052368 0.693164
vt 0.052368 0.600742
vt 1.426382 0.600742
vt -0.618193 0.883287
vt 0.050402 0.759354
vt -0.473945 1.466454
vt -0.151133 -3.696876
vt 1.504558 -3.696876
vt 1.504558 -2.402969
vt -0.151133 -2.402969
vt -0.151133 1.987071
vt 0.052368 2.190573
vt -0.151133 2.487896
vt 1.426382 2.190573
vt 0.052368 2.605388
vt -1.018588 2.988721
vt -1.018588 3.223705
vt -1.426382 2.988266
vt -1.629884 2.635790
vt 1.629884 1.987071
vt 1.629884 2.841973
vt 1.426382 2.711512
vt 0.186547 3.493374
vt 0.231055 3.696876
vt -1.426382 3.493374
vt -1.629884 3.696876
vt -0.151133 -0.342243
vt -0.151133 -0.665720
vt -0.058711 -0.665720
vt -0.058711 -0.342243
vt -1.504558 0.323477
vt -1.504558 -0.251124
vt -1.409652 -1.201485
vt 0.151133 -1.201485
vt 0.151133 0.125922
vt -0.040223 0.323477
vt -0.554531 -2.402969
vt 0.554531 -2.402969
vt 0.554531 -1.201485
vt -0.554531 -1.201485
vt -0.693164 3.493374
vt -0.693164 2.988266
vt -0.600742 2.988266
vt -0.600742 3.493374
vt 0.693164 -2.402969
vt -0.554531 -2.402969
vt -0.693164 -2.785103
vt -0.693164 -3.696876
vt 0.693164 -3.696876
vt 0.693164 2.190573
vt 0.693164 2.711512
vt 0.600742 2.711512
vt 0.600742 2.190573
vt -0.554531 0.323477
vt 0.554531 0.323477
vt 0.554531 1.273557
vt -0.554531 1.273557
vt 0.693164 2.190573
vt 0.693164 2.605388
vt 0.600742 2.605388
vt 0.600742 2.190573
vt 0.151133 -0.640494
vt 0.151133 -0.363228
vt 0.058711 -0.363228
vt 0.058711 -0.640494
vt -0.186547 -0.693164
vt 1.426382 -0.693164
vt 1.426382 -0.600742
vt -0.186547 -0.600742
vt 1.344786 0.693164
vt -0.186547 0.693164
vt -0.186547 0.600742
vt 1.344786 0.600742
vt 0.012501 -1.201485
vt -1.365926 -1.201485
vt -1.365926 -2.402969
vt 0.012501 -2.402969
vt 0.067622 2.903800
vt 0.693164 3.892982
vt -0.693164 3.892982
vt -0.693164 2.493976
vt -0.693164 1.257342
vt -0.600742 1.257342
vt -0.600742 2.493976
vt -0.693164 0.729729
vt -0.693164 0.504693
vt -0.600742 0.504693
vt -0.600742 0.729729
vt -1.504558 -0.693164
vt 0.151133 -0.693164
vt 0.151133 0.693164
vt -1.504558 0.693164
vt -0.284281 -0.211671
vt -0.202947 0.015555
vt -0.439245 0.015555
vt -0.554531 1.987071
vt -0.554531 1.486245
vt 0.050984 0.847276
vt -0.554531 0.509893
vt -0.554531 0.323477
vt 0.554531 0.323477
vt 0.554531 1.987071
vt -0.344215 3.127347
vt 0.432972 3.028867
vt -0.269066 4.060575
vt 0.693164 3.336663
vt 0.693164 3.740779
vt 0.600742 3.740779
vt 0.600742 3.336663
vt -0.012501 -1.201485
vt -0.012501 -2.402969
vt 1.365926 -2.402969
vt 1.365926 -1.201485
vt -1.504558 0.554531
vt -1.504558 -0.554531
vt -1.365926 -0.554531
vt -1.365926 0.554531
vt 0.693164 0.091304
vt 0.693164 1.730688
vt -0.693164 1.730688
vt -0.693164 0.091304
vt 0.151133 -0.722197
vt 0.151133 -0.352509
vt 0.058711 -0.352509
vt 0.058711 -0.722197
vt -0.151133 -1.201485
vt 1.504558 -1.201485
vt 1.504558 0.323477
vt -0.151133 0.323477
vt 0.096550 -2.452571
vt -1.330556 -2.452571
vt 0.083083 -2.858852
vt -0.693164 1.705614
vt -0.693164 0.239839
vt -0.600742 0.239839
vt -0.600742 1.705614
vt -0.151133 -0.693164
vt -0.012501 -0.554531
vt -0.151133 0.554531
vt 1.504558 -0.693164
vt 1.365926 -0.554531
vt 1.365926 0.554531
vt -0.012501 0.554531
vt 1.269223 0.693164
vt 1.504558 0.693164
vn 0.0000 1.0000 -0.0000
vn -0.8224 -0.0821 0.5630
vn 1.0000 0.0000 -0.0000
vn -0.4991 -0.8666 0.0000
vn -0.5004 -0.8658 0.0000
vn -1.0000 -0.0000 0.0000
vn 0.0000 -1.0000 -0.0000
vn 0.0000 -0.0000 1.0000
vn 0.9751 0.0000 0.2219
vn -0.0000 0.0000 -1.0000
vn -0.8660 0.5000 0.0000
vn 0.4992 0.8665 -0.0000
vn -0.9849 -0.1730 0.0000
vn -0.9850 -0.1725 0.0000
vn 0.5319 -0.8468 -0.0000
vn -0.0000 -0.7187 -0.6953
vn 0.8062 0.5166 0.2883
vn 0.8059 0.5172 0.2882
vn 0.8062 0.5166 0.2884
vn 0.4992 -0.8665 -0.0000
vn 0.5000 -0.8660 -0.0000
vn 0.7825 -0.4283 0.4519
vn -0.0000 0.6093 -0.7929
vn 0.0000 0.6097 -0.7926
vn 0.0000 0.7932 0.6089
vn 0.0000 0.7929 0.6093
vn 0.9894 -0.1449 -0.0000
vn 0.5012 0.8653 -0.0000
vn 0.5103 0.4937 0.7042
vn 0.5100 0.4944 0.7039
vn 0.5100 0.4945 0.7038
vn 0.9194 -0.3159 0.2344
vn 0.9190 -0.3173 0.2342
vn -0.9462 0.3235 -0.0000
vn -0.5215 0.8533 0.0000
vn -0.5219 0.8530 0.0000
vn 0.0000 -0.4492 0.8935
vn 0.0914 0.3390 0.9363
vn 0.0916 0.3391 0.9363
vn 0.0914 0.3396 0.9361
vn 0.5318 -0.8469 0.0000
vn 0.5342 -0.8454 -0.0000
usemtl Grey17
s 1
f 1/1/1 2/2/1 3/3/1 4/4/1
f 5/5/2 6/6/2 7/7/2
f 8/8/3 9/9/3 10/10/3 11/11/3
f 12/12/4 13/13/5 14/14/4 15/15/4 16/16/4
f 17/17/3 18/18/3 19/19/3 20/20/3
f 21/21/6 22/22/6 23/23/6 24/24/6 25/25/6 26/26/6
f 27/27/7 28/28/7 29/29/7
f 28/28/7 27/27/7 30/30/7
f 28/28/7 30/30/7 31/31/7
f 31/31/7 30/30/7 32/32/7
f 29/29/7 33/33/7 34/34/7
f 33/33/7 29/29/7 28/28/7
f 34/34/7 33/33/7 32/32/7
f 34/34/7 32/32/7 30/30/7
f 34/34/7 30/30/7 35/35/7
f 36/36/6 37/37/6 38/38/6 39/39/6
f 40/40/3 41/41/3 42/42/3 43/43/3
f 44/44/8 45/45/8 46/46/8 47/47/8 48/48/8 49/49/8 50/50/8 51/51/8 52/52/8
f 53/53/9 54/54/9 55/55/9
f 56/56/1 57/57/1 58/58/1
f 57/57/1 56/56/1 59/59/1
f 57/57/1 59/59/1 60/60/1
f 60/60/1 59/59/1 61/61/1
f 58/58/1 62/62/1 63/63/1
f 62/62/1 58/58/1 57/57/1
f 63/63/1 62/62/1 61/61/1
f 63/63/1 61/61/1 64/64/1
f 64/64/1 61/61/1 59/59/1
f 65/65/8 66/66/8 67/67/8 68/68/8 69/69/8 70/70/8 71/71/8 72/72/8
f 73/73/3 74/74/3 75/75/3 76/76/3
f 77/77/10 78/78/10 79/79/10 80/80/10 81/81/10 82/82/10
f 83/83/8 84/84/8 85/85/8
f 84/84/8 83/83/8 86/86/8
f 84/84/8 86/86/8 87/87/8
f 87/87/8 86/86/8 88/88/8
f 89/89/8 90/90/8 91/91/8
f 90/90/8 89/89/8 92/92/8
f 91/91/8 90/90/8 93/93/8
f 91/91/8 93/93/8 88/88/8
f 91/91/8 88/88/8 94/94/8
f 94/94/8 88/88/8 86/86/8
f 95/95/8 92/92/8 89/89/8
f 92/92/8 95/95/8 96/96/8
f 92/92/8 96/96/8 97/97/8
f 97/97/8 96/96/8 85/85/8
f 97/97/8 85/85/8 98/98/8
f 98/98/8 85/85/8 84/84/8
f 99/99/11 100/100/6 101/101/6 102/102/11
f 103/103/7 104/104/7 105/105/7 106/106/7 107/107/7 108/108/7 109/109/7 110/110/7
f 111/111/6 112/112/6 113/113/6 114/114/6 115/115/6
f 116/116/12 117/117/1 118/118/1 119/119/12
f 120/120/8 121/121/8 122/122/8 123/123/8 124/124/8
f 125/125/3 126/126/3 127/127/3
f 126/126/3 125/125/3 128/128/3
f 126/126/3 128/128/3 129/129/3
f 128/128/3 125/125/3 130/130/3
f 126/126/3 131/131/3 132/132/3
f 131/131/3 126/126/3 129/129/3
f 132/132/3 131/131/3 130/130/3
f 132/132/3 130/130/3 125/125/3
f 132/132/3 125/125/3 133/133/3
f 134/134/13 135/135/14 136/136/14 137/137/14
f 138/138/15 139/139/15 140/140/15 141/141/15
f 142/142/16 143/143/16 144/144/16 145/145/16
f 146/146/1 147/147/1 148/148/1 149/149/1
f 150/150/17 151/151/18 152/152/19
f 153/153/11 154/154/1 155/155/1 156/156/11
f 157/157/20 158/158/21 159/159/21 160/160/20
f 161/161/10 162/162/10 163/163/10 164/164/10 165/165/10 166/166/10 167/167/10 168/168/10
f 169/169/1 170/170/1 171/171/1 172/172/1
f 173/173/22 174/174/22 175/175/22
f 176/176/10 177/177/10 178/178/10 179/179/10
f 180/180/10 181/181/10 182/182/10
f 181/181/10 180/180/10 183/183/10
f 182/182/10 181/181/10 184/184/10
f 182/182/10 184/184/10 185/185/10
f 185/185/10 184/184/10 186/186/10
f 185/185/10 187/187/10 188/188/10
f 187/187/10 185/185/10 186/186/10
f 189/189/10 183/183/10 180/180/10
f 183/183/10 189/189/10 190/190/10
f 183/183/10 190/190/10 191/191/10
f 191/191/10 190/190/10 192/192/10
f 192/192/10 190/190/10 193/193/10
f 192/192/10 193/193/10 194/194/10
f 187/187/10 195/195/10 188/188/10
f 195/195/10 187/187/10 194/194/10
f 195/195/10 194/194/10 193/193/10
f 196/196/23 197/197/24 198/198/24 199/199/23
f 200/200/8 201/201/8 202/202/8 203/203/8 204/204/8 205/205/8
f 206/206/6 207/207/6 208/208/6 209/209/6
f 210/210/6 211/211/6 212/212/6 213/213/6
f 214/214/3 215/215/3 216/216/3 217/217/3 218/218/3
f 219/219/3 220/220/3 221/221/3 222/222/3
f 223/223/6 224/224/6 225/225/6 226/226/6
f 227/227/6 153/228/11 156/229/11 228/230/6
f 229/231/25 230/232/26 231/233/26 232/234/25
f 233/235/7 234/236/7 235/237/7 236/238/7
f 237/239/7 238/240/7 239/241/7 240/242/7
f 241/243/8 242/244/8 243/245/8 244/246/8
f 245/247/27 246/248/27 247/249/27
f 117/250/1 99/251/11 102/252/11 118/253/1
f 154/254/1 248/255/28 249/256/28 155/257/1
f 250/258/7 251/259/7 252/260/7 253/261/7
f 254/262/29 255/263/30 256/264/31
f 257/265/3 258/266/3 259/267/3 260/268/3 261/269/3 262/270/3 263/271/3
f 264/272/32 265/273/33 266/274/32
f 267/275/34 268/276/34 269/277/34 270/278/34
f 271/279/10 272/280/10 273/281/10 274/282/10
f 275/283/7 276/284/7 277/285/7 278/286/7
f 279/287/35 280/288/36 281/289/36 282/290/35
f 283/291/37 284/292/37 285/293/37 286/294/37
f 287/295/10 288/296/10 289/297/10 290/298/10
f 291/299/38 292/300/39 293/301/40
f 294/302/41 295/303/42 296/304/42 297/305/41
f 298/306/1 299/307/1 300/308/1
f 299/307/1 298/306/1 301/309/1
f 299/307/1 301/309/1 302/310/1
f 302/310/1 301/309/1 303/311/1
f 300/308/1 304/312/1 305/313/1
f 304/312/1 300/308/1 299/307/1
f 305/313/1 304/312/1 303/311/1
f 305/313/1 303/311/1 306/314/1
f 306/314/1 303/311/1 301/309/1
